<svg width="229" height="20" viewBox="0 0 229 20" fill="none" xmlns="http://www.w3.org/2000/svg">
    <path fill-rule="evenodd" clip-rule="evenodd" d="M12.884 11.111c-.465 1.27-1.63 2.222-3.104 2.222-1.785 0-3.26-1.508-3.26-3.333 0-1.825 1.475-3.333 3.26-3.333 1.397 0 2.639.952 3.104 2.222h6.676C19.016 3.889 14.903 0 9.78 0 4.424.159 0 4.603 0 10.08 0 15.555 4.424 20 9.78 20c5.045 0 9.236-3.889 9.78-8.889h-6.675zM29.262 10.08c0-3.81 2.716-6.35 6.287-6.35 3.182 0 5.433 1.508 5.743 4.762h-3.648c-.155-1.27-.853-1.984-2.095-1.984-1.553 0-2.562 1.27-2.562 3.492v.159c0 2.222.932 3.492 2.64 3.492 1.241 0 2.095-.635 2.328-2.064h3.493c-.233 3.254-2.562 4.92-5.744 4.92-4.347.08-6.442-2.46-6.442-6.348v-.08zM44.397 3.889h3.493v9.682h4.657v2.778h-8.15V3.89zM56.04 3.889h8.538v2.778h-5.046V8.81h3.959v2.54h-3.959v2.3h5.279v2.779H56.04V3.889zM68.303 3.889h4.813c3.26 0 5.045 1.35 5.045 3.968v.08c0 1.746-.932 2.777-2.251 3.253l2.95 5.16h-3.726l-2.484-4.445h-.854v4.444h-3.493V3.89zm4.657 5.714c1.165 0 1.786-.476 1.786-1.508v-.08c0-1.03-.621-1.428-1.786-1.428h-1.164v3.016h1.164zM82.041 3.889h3.571v4.92l3.726-4.92h3.725l-4.502 5.794 4.735 6.666h-4.114l-3.57-5.238v5.238h-3.57V3.89zM99.273 11.032l-4.036-7.143h3.88l2.096 4.206 2.096-4.206h3.415l-3.803 7.143v5.317h-3.57v-5.317h-.078z" fill="#22262E"/>
    <path d="M115.947 16.35h2.27v-5.305h5.478v5.305h2.287V3.873h-2.287v5.305h-5.478V3.873h-2.27V16.35zM128.934 16.35h7.918v-1.832h-5.649V10.87h4.301V9.126h-4.301v-3.42h5.359V3.872h-7.628V16.35zM139.07 16.35h7.475V14.5h-5.205V3.873h-2.27V16.35zM148.641 16.35h2.269v-4.746h1.707c2.611 0 4.471-1.17 4.471-3.804v-.07c0-2.618-1.792-3.857-4.522-3.857h-3.925V16.35zm2.269-6.422V5.671h1.656c1.45 0 2.304.575 2.304 2.059v.07c0 1.378-.802 2.128-2.304 2.128h-1.656zM168.789 16.524c2.902 0 4.984-1.518 5.342-4.519h-2.219c-.239 1.762-1.433 2.635-3.123 2.635-2.252 0-3.566-1.658-3.566-4.467v-.14c0-2.792 1.399-4.502 3.549-4.502 1.758 0 2.663.855 2.919 2.513h2.303c-.273-2.932-2.44-4.363-5.239-4.363-3.396 0-5.922 2.618-5.922 6.37v.14c0 3.838 2.134 6.333 5.956 6.333zM176.268 16.35h7.918v-1.832h-5.649V10.87h4.301V9.126h-4.301v-3.42h5.359V3.872h-7.628V16.35zM186.405 16.35h2.064V6.787l5.496 9.563h2.355V3.873h-2.065v9.022l-5.137-9.022h-2.713V16.35zM201.732 16.35h2.286V5.705h3.396V3.874h-9.079v1.832h3.397V16.35zM209.411 16.35h7.919v-1.832h-5.649V10.87h4.301V9.126h-4.301v-3.42h5.359V3.872h-7.629V16.35zM219.548 16.35h2.27v-5.043h1.45l3.192 5.043h2.457l-3.43-5.392c1.519-.401 2.713-1.396 2.713-3.35v-.07c0-2.548-1.877-3.665-4.556-3.665h-4.096V16.35zm2.27-6.7V5.67h1.826c1.45 0 2.321.49 2.321 1.92v.07c0 1.326-.802 1.99-2.321 1.99h-1.826z" fill="#989EA6"/>
</svg>
