<svg viewBox="0 0 180 17" xmlns="http://www.w3.org/2000/svg">
  <g fill="none" fill-rule="evenodd">
    <path d="M10.6616255 9.02137542c-.3785192 1.00938468-1.32481737 1.76642318-2.52346166 1.76642318-1.45099045 0-2.64963474-1.1986443-2.64963474-2.64963476 0-1.45099045 1.1986443-2.64963474 2.64963474-2.64963474 1.13555775 0 2.14494246.7570385 2.52346166 1.76642316h5.4254426C15.6454623 3.28050016 12.3018756.18925962 8.13816384.18925962 3.7851925.31543272.18925962 3.84827902.18925962 8.2012504c0 4.3529713 3.59593287 7.8858177 7.94890422 7.8858177 4.10062516 0 7.50729846-3.0912406 7.94890426-7.06569268h-5.4254426z" fill="#22262E"/>
    <g fill="#22262E">
      <path d="M23.972886 8.2012503c0-3.02815397 2.20802895-5.0469233 5.11000986-5.0469233 2.5865482 0 4.4160579 1.1986443 4.66840406 3.7851925h-2.96506745c-.12617308-1.00938468-.69395195-1.57716355-1.7033366-1.57716355-1.26173084 0-2.08185588 1.00938466-2.08185588 2.77580782v.1261731c0 1.76642315.7570385 2.7758078 2.1449424 2.7758078 1.00938466 0 1.70333662-.50469232 1.89259624-1.64025007H33.877473c-.18925962 2.5865482-2.08185586 3.9113656-4.66840406 3.9113656-3.53284632.0630865-5.23618294-1.9556828-5.23618294-5.04692334V8.2012503zM36.2747616 3.28050008h2.8388943v7.69655806h3.7851925v2.20802896h-6.6240868M45.7377428 3.28050008h6.9395196v2.20802895h-4.1006252v1.70333662h3.2174136v2.01876933h-3.2174136v1.8295097h4.2898848v2.20802892h-7.1287792M55.7054163 3.28050008h3.9113656c2.6496347 0 4.1006252 1.0724712 4.1006252 3.15432707v.06308655c0 1.3879039-.7570385 2.20802895-1.8295097 2.5865482l2.3972886 4.1006252h-3.028154l-2.0187693-3.53284633h-.693952v3.53284633h-2.8388944V3.28050008zm3.7851925 4.542231c.9462981 0 1.4509905-.37851926 1.4509905-1.1986443v-.06308654c0-.82012504-.5046924-1.13555775-1.4509905-1.13555775h-.9462981v2.39728857h.9462981zM66.8717342 3.28050008h2.9019809v3.91136557l3.028154-3.91136557h3.028154L72.1710037 7.8858176l3.848279 5.2992695H72.675696l-2.9019809-4.16371175v4.16371175h-2.9019809M80.8769464 8.9582888L77.5964462 3.2805001h3.1543271l1.7033366 3.3435867 1.7033366-3.3435867h2.7758078L83.8420138 8.9582888v4.2267983h-2.9019809V8.9582888"/>
    </g>
    <path d="M95.7426758 13.1874682h1.8456568V8.96882405h4.4545554v4.21864415h1.859534V3.26532812h-1.859534v4.2186442h-4.4545554V3.2653281h-1.8456568v9.92214008zm13.9930342.1387712c-2.137077 0-3.677437-1.401589-3.677437-3.69131364V9.5239088c0-2.24809327 1.54036-3.74682213 3.608051-3.74682213 1.804026 0 3.427648 1.06853816 3.427648 3.66355943v.48569916h-5.314936c.055508 1.37383474.749364 2.15095344 1.998305 2.15095344 1.01303 0 1.54036-.4024364 1.665254-1.1101695h1.623623c-.235911 1.5264831-1.470974 2.3591102-3.330508 2.3591102zm-1.92892-4.52394078h3.621928c-.083263-1.2489407-.72161-1.80402548-1.762394-1.80402548-1.01303 0-1.693008.67997884-1.859534 1.80402548zm7.41528 4.38516958h1.679131V2.57147217h-1.679131V13.1874682zm4.306804 2.4840043V5.92973498h1.679132v1.165678c.402436-.69385595 1.304449-1.3183263 2.372987-1.3183263 1.817903 0 3.219492 1.34608054 3.219492 3.69131365v.11101696c0 2.331356-1.346081 3.7468221-3.219492 3.7468221-1.151801 0-1.984428-.5689619-2.372987-1.2766949v3.621928h-1.679132zm3.635805-3.6774365c1.235064 0 1.915043-.8326271 1.915043-2.38686447v-.11101696c0-1.6097458-.832627-2.4007416-1.92892-2.4007416-1.165678 0-1.998305.7909958-1.998305 2.4007416v.11101696c0 1.62362297.790996 2.38686447 2.012182 2.38686447zm14.108949 1.3322034c2.35911 0 4.052119-1.2073093 4.343538-3.5941738h-1.804025c-.19428 1.401589-1.165678 2.095445-2.539513 2.095445-1.83178 0-2.900318-1.3183263-2.900318-3.5525425v-.11101696c0-2.22033904 1.137924-3.5802967 2.886441-3.5802967 1.429343 0 2.164831.67997882 2.372987 1.99830513h1.873411c-.222033-2.331356-1.984428-3.46927976-4.260275-3.46927976-2.761547 0-4.81536 2.08156787-4.81536 5.06514846v.11101696c0 3.05296618 1.734639 5.03739418 4.843114 5.03739418zm9.58011 0c-2.137076 0-3.677436-1.401589-3.677436-3.69131364V9.5239088c0-2.24809327 1.54036-3.74682213 3.608051-3.74682213 1.804025 0 3.427648 1.06853816 3.427648 3.66355943v.48569916h-5.314937c.055509 1.37383474.749365 2.15095344 1.998305 2.15095344 1.01303 0 1.540361-.4024364 1.665255-1.1101695h1.623623c-.235911 1.5264831-1.470975 2.3591102-3.330509 2.3591102zm-1.928919-4.52394078h3.621928c-.083263-1.2489407-.721611-1.80402548-1.762394-1.80402548-1.01303 0-1.693009.67997884-1.859534 1.80402548zm7.373648 4.38516958h1.679131V8.91331557c0-1.15180088.763242-1.73463988 1.706886-1.73463988.999152 0 1.44322.49957628 1.44322 1.59586868v4.41292382h1.679131V8.62189607c0-1.99830514-1.026906-2.8448094-2.484004-2.8448094-1.193432 0-1.998305.59671612-2.345233 1.3044492v-1.1518009h-1.679131v7.25773323zm11.495152.1248941c.513453 0 .874259-.0832627 1.137924-.1804025v-1.3322035c-.235911.0971399-.485699.1387712-.81875.1387712-.527331 0-.832627-.2914195-.832627-.929767V7.1925528h1.595868V5.929735h-1.595868v-1.5958687h-1.679132V5.929735h-.971398V7.1925528h.971398v3.9688561c0 1.3738347.749365 2.1509534 2.192585 2.1509534zm6.430004.0138771c-2.137076 0-3.677437-1.401589-3.677437-3.69131364V9.5239088c0-2.24809327 1.540361-3.74682213 3.608051-3.74682213 1.804026 0 3.427649 1.06853816 3.427649 3.66355943v.48569916h-5.314937c.055509 1.37383474.749365 2.15095344 1.998305 2.15095344 1.01303 0 1.540361-.4024364 1.665255-1.1101695h1.623623c-.235911 1.5264831-1.470975 2.3591102-3.330509 2.3591102zm-1.92892-4.52394078h3.621929c-.083263-1.2489407-.721611-1.80402548-1.762395-1.80402548-1.013029 0-1.693008.67997884-1.859534 1.80402548zm7.373649 4.38516958h1.679131V9.41289186c0-1.54036022.888136-2.01218226 2.35911-2.02605938V5.81871803c-1.221186.0138771-1.901165.55508476-2.35911 1.4709746V5.929735h-1.679131v7.25773322z" fill="#008FD5"/>
  </g>
</svg>
